<svg width="8" height="12" viewBox="0 0 8 12" fill="none" xmlns="http://www.w3.org/2000/svg">
<path d="M1.11017 10.7662L0.756615 11.1197C0.592434 10.9555 0.500196 10.7329 0.500196 10.5007C0.500196 10.2685 0.592433 10.0458 0.756618 9.88162L0.756648 9.88159L4.63825 6.00067L0.757064 2.12017M1.11017 10.7662L0.757064 2.12017M1.11017 10.7662L0.756618 11.1197C0.920801 11.2839 1.14348 11.3761 1.37567 11.3761C1.60786 11.3761 1.83054 11.2839 1.99472 11.1197L6.49428 6.62017L1.11017 10.7662ZM0.757064 2.12017C0.756982 2.12009 0.756901 2.12001 0.756819 2.11993L0.756648 2.11976L1.11017 1.76617L0.757064 2.12017ZM0.756617 0.881617C0.837803 0.800342 0.934202 0.735848 1.04031 0.691817C1.14662 0.647706 1.26058 0.625 1.37567 0.625C1.49076 0.625 1.60473 0.647706 1.71103 0.691817C1.81723 0.735884 1.9137 0.800449 1.99493 0.881819L1.99472 0.881617L1.64117 1.23517L1.99517 0.882064L6.49428 5.38117C6.49435 5.38124 6.49442 5.38132 6.4945 5.38139L6.49472 5.38162L6.14117 5.73517C6.17609 5.77 6.2038 5.81139 6.2227 5.85695C6.24161 5.9025 6.25134 5.95134 6.25134 6.00067C6.25134 6.05 6.24161 6.09884 6.2227 6.14439C6.2038 6.18995 6.17609 6.23134 6.14117 6.26617L0.756617 0.881617ZM0.756617 0.881617C0.675342 0.962803 0.610848 1.0592 0.566817 1.16531L0.756617 0.881617Z" fill="#47835A" stroke="#47835A"/>
</svg>
