<svg width="143" height="142" viewBox="0 0 143 142" fill="none" xmlns="http://www.w3.org/2000/svg">
<g clip-path="url(#clip0_653_7891)">
<path d="M134.165 46.7623C124.379 20.5297 99.1459 4.15668 71.0626 4.76998C29.8925 5.66907 4.43911 31.901 5.32772 72.5913C5.61156 85.5882 8.39875 96.8801 13.3342 106.235C10.722 113.033 8.88335 118.155 5.8945 126.942C14.1347 124.571 18.3306 123.42 24.9571 121.354C36.8377 132.248 53.6156 137.923 73.9708 137.478C109.752 136.697 139.309 108.765 138.456 69.674C138.325 61.855 136.865 54.105 134.165 46.7623Z" fill="white"/>
<path d="M136.46 46.0736C130.967 31.36 120.486 19.0459 106.843 11.2719C93.0594 3.47101 77.1538 1.09772 61.5527 3.0488C47.9167 4.75693 34.7706 9.65512 24.2857 18.7062C14.3702 27.2647 7.84812 39.15 4.93463 51.8466C3.29466 59.1942 2.63905 66.7303 2.97341 74.2548C3.21753 83.6017 5.08975 92.843 8.52046 101.54C9.3548 103.562 10.2683 105.543 11.2808 107.481L11.0005 105.637C8.36941 112.486 5.9198 119.401 3.56083 126.344C2.94986 128.138 4.93454 129.705 6.57453 129.229C12.9361 127.4 19.3085 125.61 25.6371 123.642L23.2841 123.073C32.5508 131.523 44.3248 136.617 56.6323 138.659C68.9601 140.71 81.8961 140.387 93.8662 136.595C104.326 133.286 113.842 127.487 121.574 119.696C129.402 111.723 135.099 101.917 138.155 91.1673C141.821 78.1042 141.819 64.2709 138.152 51.2079C137.664 49.4681 137.097 47.7501 136.469 46.0534C135.406 43.1759 130.795 44.5269 131.869 47.4342C136.803 60.8796 137.443 75.5291 133.684 89.3445C130.607 100.514 124.466 110.591 115.955 118.449C107.54 126.104 97.2227 131.361 86.0805 133.674C79.7565 134.933 73.3044 135.364 66.8639 134.954C59.8153 134.638 52.8451 133.33 46.1643 131.075C40.2492 129.074 34.713 126.104 29.7784 122.281C29.188 121.814 28.6077 121.346 28.0369 120.859C27.3918 120.173 26.6488 119.589 25.8283 119.116C24.809 118.699 23.7595 119.192 22.7758 119.493C21.9015 119.762 21.0272 120.031 20.1526 120.291C17.0821 121.218 14.0006 122.095 10.9192 122.983C9.01056 123.525 7.11215 124.076 5.20353 124.618L8.21724 127.503C9.74926 122.998 11.3013 118.493 12.9439 114.017C13.6518 112.081 14.3699 110.154 15.108 108.228C15.3179 107.763 15.5076 107.289 15.6569 106.796C15.789 105.973 15.5904 105.127 15.1155 104.447C14.6246 103.497 14.1636 102.537 13.7323 101.566C9.94706 92.6669 7.9179 83.1089 7.75677 73.4401C7.31567 59.1964 10.1814 44.7704 18.1424 32.8237C25.4544 21.8414 36.8401 14.191 49.5102 10.3935C64.3567 5.94828 80.8178 5.81884 95.4288 11.2011C110.334 16.757 122.548 27.803 129.571 42.073C130.429 43.8147 131.179 45.6088 131.869 47.4342C132.276 48.6856 133.592 49.387 134.855 49.0494C136.116 48.6617 136.837 47.3257 136.47 46.0634L136.46 46.0736Z" fill="#211715"/>
<path d="M39.8149 66.4207L46.7149 66.4254L46.7136 68.3854L39.8136 68.3807L39.8149 66.4207ZM36.367 77.9983C38.1872 77.7395 40.9875 77.2415 43.6678 76.7633L43.8464 78.8434C41.526 79.3818 39.0657 79.9201 37.1654 80.3388L36.367 77.9983ZM38.4574 62.7597L40.7974 62.7613L40.7866 78.5613L38.4466 78.5597L38.4574 62.7597ZM39.8174 62.7607L47.7974 62.7661L47.791 72.1061L39.811 72.1007L39.8124 70.0407L45.4324 70.0445L45.436 64.8245L39.816 64.8207L39.8174 62.7607ZM43.992 70.7435C44.7095 74.304 46.2475 77.2651 49.1866 78.5671C48.6663 79.0267 47.9656 79.9662 47.6252 80.586C44.4064 78.8838 42.8487 75.4827 41.9917 71.0621L43.992 70.7435ZM46.8709 72.2455L48.75 73.5668C47.6493 74.606 46.3685 75.7251 45.3681 76.4445L43.8688 75.2834C44.8294 74.5041 46.1302 73.245 46.8709 72.2455ZM31.1775 62.7147L36.1775 62.7182L36.176 64.8582L33.416 64.8563L33.4052 80.6563L31.1652 80.6547L31.1775 62.7147ZM35.5175 62.7177L35.9375 62.718L36.2775 62.6382L37.8969 63.5793C37.3557 65.319 36.6342 67.5385 36.0131 69.0981C37.332 70.659 37.5911 72.0391 37.5903 73.1991C37.5894 74.5391 37.2888 75.3789 36.6285 75.8385C36.3083 76.0783 35.9082 76.218 35.4482 76.2777C35.0681 76.3374 34.5481 76.3371 34.0681 76.3167C34.0485 75.7167 33.8692 74.7766 33.5296 74.1764C33.9096 74.2166 34.1896 74.2168 34.4496 74.217C34.6696 74.1971 34.8696 74.1573 35.0497 74.0374C35.3098 73.8576 35.4101 73.4576 35.4105 72.8976C35.4111 71.9576 35.112 70.7174 33.9329 69.3566C34.5141 67.557 35.1961 64.7175 35.517 63.4377L35.5175 62.7177ZM59.7766 63.9943L69.9966 64.0013L69.9952 66.0813L59.7752 66.0743L59.7766 63.9943ZM59.094 67.8339L70.594 67.8417L70.5925 69.9617L59.0925 69.9539L59.094 67.8339ZM59.1313 71.6539L70.4513 71.6616L70.4499 73.7616L59.1299 73.7539L59.1313 71.6539ZM63.6381 61.857L65.998 61.8586L65.993 69.1986L63.633 69.197L63.6381 61.857ZM66.1726 69.8387L68.5126 69.8403L68.5069 78.1203C68.5061 79.2803 68.2857 79.9002 67.5055 80.2396C66.7052 80.5991 65.6252 80.6383 64.1252 80.6373C64.0456 79.9773 63.6863 79.017 63.3667 78.3968C64.3467 78.4375 65.4467 78.4382 65.7467 78.4184C66.0667 78.4186 66.1667 78.3587 66.1669 78.0787L66.1726 69.8387ZM59.929 75.0944L61.8497 73.9958C62.7891 74.9764 63.8482 76.2971 64.2875 77.2774L62.2267 78.476C61.8473 77.5358 60.8483 76.1151 59.929 75.0944ZM53.5972 63.0901L58.7572 63.0936L58.7478 76.7736L53.5878 76.7701L53.5893 74.6301L56.5093 74.6321L56.5157 65.2321L53.5957 65.2301L53.5972 63.0901ZM53.7133 68.7702L57.5933 68.7728L57.5919 70.8728L53.7119 70.8702L53.7133 68.7702ZM52.4772 63.0893L54.6972 63.0908L54.6866 78.5508L52.4666 78.5493L52.4772 63.0893ZM81.5568 63.6692L91.1968 63.6759L91.1953 65.8559L81.5553 65.8492L81.5568 63.6692ZM80.3542 67.5484L92.0742 67.5565L92.0726 69.7765L80.3526 69.7684L80.3542 67.5484ZM80.7914 71.5687L91.8714 71.5763L91.8699 73.7963L80.7899 73.7887L80.7914 71.5687ZM85.118 61.8717L87.498 61.8733L87.4933 68.7733L85.1133 68.7717L85.118 61.8717ZM87.4928 69.5333L89.8728 69.5349L89.867 77.9949C89.8662 79.2149 89.6257 79.8748 88.8255 80.2342C88.0252 80.5937 86.8852 80.6529 85.3652 80.6519C85.2857 79.9518 84.9664 78.9316 84.6468 78.2714C85.6268 78.312 86.7268 78.3128 87.0668 78.293C87.3868 78.2932 87.4868 78.2333 87.487 77.9533L87.4928 69.5333ZM81.4891 74.8692L83.2699 73.7704C84.1493 74.651 85.2084 75.9118 85.6878 76.7921L83.787 78.0308C83.3676 77.1505 82.3485 75.8298 81.4891 74.8692ZM73.2307 72.5435C75.191 72.1049 78.1116 71.2869 80.8721 70.5088L81.1907 72.609C78.6701 73.4073 75.9296 74.2254 73.8092 74.8439L73.2307 72.5435ZM76.838 61.886L79.038 61.8875L79.0252 80.6675L76.8252 80.666L76.838 61.886ZM74.1973 62.9242L76.1971 63.2656C75.9353 65.9054 75.4534 68.6851 74.7321 70.4846C74.3723 70.1843 73.5127 69.6437 73.0329 69.4034C73.674 67.7838 74.0157 65.2841 74.1973 62.9242ZM74.7354 65.6646L80.6954 65.6687L80.6939 67.9487L74.2939 67.9443L74.7354 65.6646ZM100.557 62.7823L113.437 62.7911L113.436 64.5311L100.556 64.5223L100.557 62.7823ZM102.995 66.7839L102.994 68.1439L110.634 68.1492L110.635 66.7892L102.995 66.7839ZM100.936 65.3825L112.816 65.3907L112.813 69.5307L100.933 69.5225L100.936 65.3825ZM104.237 63.4248L106.117 63.4261L106.113 68.7261L104.233 68.7248L104.237 63.4248ZM107.437 63.427L109.357 63.4283L109.353 68.7283L107.433 68.727L107.437 63.427ZM103.45 73.5842L103.45 74.3242L110.27 74.3289L110.27 73.5889L103.45 73.5842ZM103.449 75.6042L103.448 76.3642L110.268 76.3689L110.269 75.6089L103.449 75.6042ZM103.451 71.5642L103.451 72.3042L110.271 72.3089L110.271 71.5689L103.451 71.5642ZM101.232 70.2227L112.612 70.2305L112.607 77.7105L101.227 77.7027L101.232 70.2227ZM107.486 78.827L109.027 77.5081C110.727 78.0692 112.726 78.8506 113.886 79.4114L111.825 80.75C110.846 80.1693 109.126 79.3881 107.486 78.827ZM104.507 77.465L106.167 78.6661C104.846 79.5852 102.825 80.3238 101.045 80.7026C100.785 80.2224 100.226 79.482 99.8063 79.0818C101.526 78.7429 103.407 78.1242 104.507 77.465ZM98.398 61.9408L100.618 62.5823C99.4752 66.0815 97.6326 69.8803 95.5909 72.2789C95.3913 71.6787 94.8123 70.3183 94.4327 69.6781C96.054 67.7992 97.536 64.8602 98.398 61.9408ZM96.8142 67.4197L99.0358 65.2212L99.0957 65.2613L99.0852 80.6613L96.8052 80.6597L96.8142 67.4197Z" fill="#47835A"/>
</g>
<defs>
<clipPath id="clip0_653_7891">
<rect width="137.52" height="138.66" fill="white" transform="translate(139.385 0.908936) rotate(88.7489)"/>
</clipPath>
</defs>
</svg>
