<svg width="96" height="96" viewBox="0 0 96 96" fill="none" xmlns="http://www.w3.org/2000/svg">
<g clip-path="url(#clip0_750_32686)">
<path d="M49.9869 88.3698C41.1796 90.1165 32.427 90.5442 25.1335 85.367C20.1903 81.8664 16.8141 76.901 14.1258 71.7696C8.5109 61.0352 6.35572 47.598 10.9626 36.8199C12.4366 33.396 14.8016 30.4054 17.8249 28.1477C22.2353 24.8601 27.8774 23.5426 33.5634 23.0999C38.574 22.9397 43.4744 22.4889 47.9057 20.4748C59.6063 15.9385 72.0497 16.7652 80.0789 25.5934C85.8795 31.9653 87.9691 40.5432 88.3229 48.9531C88.6131 55.8114 87.8102 62.8872 84.6582 69.3186C82.0696 74.6717 77.8795 79.1305 72.6483 82.102C67.0456 85.2085 59.8766 86.1412 53.658 87.5779C52.4362 87.8602 51.2112 88.1291 49.9869 88.3698Z" fill="#DE3C2B"/>
<path d="M45.176 30.6079C44.0623 27.3744 43.6576 23.942 43.9976 20.5272C44.2054 17.5362 44.5123 14.4451 45.6057 11.6148C45.9112 10.8208 46.1941 10.0531 45.7481 9.24303C45.3192 8.56949 44.5755 8.15133 43.7632 8.12125C43.1973 8.00615 42.6063 8.09352 42.0957 8.37304C41.2904 8.84003 41.0097 9.8039 40.7073 10.6113C39.6179 13.7076 38.9615 16.9356 38.766 20.1976C38.4367 24.0946 38.5898 28.1189 39.973 31.8029C40.1953 32.6716 41.0821 33.2112 41.981 33.0247L43.9128 32.5784C46.022 32.0911 45.2826 28.8905 43.1734 29.3778L41.2416 29.8241L43.2495 31.0459C42.0797 27.6006 41.694 23.9391 42.1236 20.3209C42.2502 18.6903 42.4717 17.0658 42.798 15.4592C42.9736 14.632 43.1781 13.8052 43.4296 12.9955C43.6015 12.1832 43.8964 11.4057 44.3191 10.6829L43.691 11.2635L43.8698 11.166L42.9961 11.3678C43.1456 11.3614 43.305 11.3667 43.4539 11.3885C43.6232 11.4056 43.9448 11.5841 43.634 11.4523L42.9144 11.0144L43.0501 11.1657L42.6384 10.411C42.557 10.1207 42.5517 10.3467 42.4611 10.5151C42.3609 10.7349 42.2774 10.9649 42.2091 11.1984C42.0836 11.5576 41.9717 11.9135 41.8697 12.2813C41.6274 13.1309 41.4595 13.9915 41.3083 14.8622C41.0082 16.5821 40.8107 18.3416 40.673 20.0801C40.3768 23.8711 40.5668 27.7746 41.9063 31.3632C42.1354 32.2304 43.0139 32.765 43.9143 32.585C44.8138 32.3702 45.3794 31.488 45.1745 30.6012L45.176 30.6079Z" fill="#47835A"/>
<path d="M17.2388 58.0752L21.3544 57.1244L21.7361 58.7769L17.6205 59.7277L17.2388 58.0752ZM15.6983 55.2453L17.4754 54.8348L20.1514 66.4177L18.4462 67.14L15.6983 55.2453ZM17.2121 66.7026C18.6402 66.0607 20.8178 64.9664 22.8587 63.9202L23.4839 65.6314C21.6805 66.6392 19.7092 67.7022 18.2043 68.5096L17.2121 66.7026ZM20.4864 63.3187L21.8293 62.2367C23.1056 63.3541 24.5571 64.8744 25.2085 65.9883L23.7661 67.2083C23.1458 66.0872 21.7387 64.4745 20.4864 63.3187ZM16.5245 55.0545L21.7781 53.8407L23.5501 61.5107L18.2965 62.7244L17.8967 60.994L21.4199 60.1801L20.4475 55.9709L16.9243 56.7849L16.5245 55.0545ZM26.7595 52.6571L28.6926 52.2105L30.8787 61.6732C31.0876 62.5774 31.0842 63.2022 30.5866 63.6785C30.1082 64.1667 29.3863 64.3827 28.3574 64.6204C28.1774 64.0544 27.6651 63.1875 27.2429 62.7103C27.8616 62.6166 28.5128 62.4497 28.7311 62.3993C28.9337 62.3525 28.9817 62.2757 28.9348 62.0731L26.7595 52.6571ZM22.6283 53.6115L27.7572 52.4266L28.193 54.3129L24.9816 55.0548L27.7548 67.0586L25.8373 67.5016L22.6283 53.6115ZM38.9927 57.434L47.8787 55.3811L48.2568 57.018L39.3709 59.0709L38.9927 57.434ZM40.8629 49.8915L44.8694 48.9659L44.787 50.3151L40.3908 51.3307L40.8629 49.8915ZM43.9497 54.3675L45.7269 53.957L47.2323 60.4733C47.4376 61.3619 47.4162 61.9088 46.873 62.3298C46.3646 62.7593 45.5456 62.9814 44.3764 63.2515C44.1916 62.7358 43.7813 62.026 43.4286 61.5656C44.1841 61.4239 44.9635 61.2438 45.2094 61.1706C45.4276 61.1201 45.4948 61.0554 45.4479 60.8527L43.9497 54.3675ZM40.967 48.6358L42.8834 48.6857C42.0288 50.6731 40.4787 52.7062 38.7809 54.1001C38.4402 53.834 37.7685 53.4144 37.3487 53.2322C39.0202 52.0086 40.3761 50.201 40.967 48.6358ZM40.3353 59.8334L41.5786 58.6758C42.3691 59.1829 43.3262 59.9142 43.7857 60.4813L42.4548 61.7577C42.0421 61.1797 41.1329 60.3717 40.3353 59.8334ZM40.4101 51.9831L41.1318 50.9132C42.0277 51.166 43.1371 51.6322 43.6961 52.0614L42.9337 53.2393C42.4059 52.8029 41.3168 52.2827 40.4101 51.9831ZM38.915 53.5437L39.7722 52.4917C40.655 52.8297 41.7201 53.3883 42.2586 53.8714L41.3535 55.0002C40.8341 54.529 39.7894 53.9164 38.915 53.5437ZM33.299 58.5195L37.4301 57.5651L37.8011 59.1708L33.6699 60.1252L33.299 58.5195ZM34.9579 49.9912L36.6883 49.5915L40.0701 64.2299L38.3397 64.6297L34.9579 49.9912ZM34.2333 59.0098L35.8546 58.6352L36.0743 59.5862C36.3732 60.8801 36.7792 63.3481 36.102 65.1795C35.741 64.9673 34.9698 64.6857 34.5249 64.6078C35.0534 63.0571 34.6979 61.0208 34.4386 59.8984L34.2333 59.0098ZM44.2147 49.1171L44.542 49.0415L44.8394 48.9071L46.1035 49.1898C45.5779 52.9568 42.993 55.5574 39.8058 57.3283C39.5251 56.9662 38.9637 56.4554 38.5763 56.2001C41.4625 54.7615 43.87 52.3168 44.2759 49.3822L44.2147 49.1171ZM32.321 51.3722L33.9267 51.0013L34.7443 54.5401L36.9112 54.0394L37.2966 55.7075L33.5239 56.5791L32.321 51.3722ZM48.9619 47.7905L56.9125 45.9537L57.2978 47.6218L49.3472 49.4586L48.9619 47.7905ZM51.1439 55.103L58.1435 53.4859L58.5289 55.154L51.5292 56.7711L51.1439 55.103ZM53.3824 52.993L55.2375 52.5644L56.5953 58.4416L54.805 59.1508L53.3824 52.993ZM51.4303 59.2572C53.4605 58.5911 56.5387 57.4858 59.3747 56.4694L59.8248 58.2046C57.1207 59.2234 54.2176 60.3046 52.1431 61.0631L51.4303 59.2572ZM49.8599 51.8198C51.6455 51.3744 54.34 50.6698 56.9218 49.9748L57.246 51.5913C54.7997 52.3043 52.2215 53.0149 50.3688 53.525L49.8599 51.8198ZM54.3325 49.3578L55.5507 48.3046C56.6686 49.163 57.9976 50.3667 58.6143 51.2588L57.3278 52.4428C56.7459 51.5591 55.4456 50.2666 54.3325 49.3578ZM51.4097 48.2924L53.5335 48.2451C53.294 49.6963 53.0318 51.3333 52.7406 52.4187L51.0689 52.3616C51.2833 51.2282 51.4267 49.5037 51.4097 48.2924ZM57.7018 46.7403L59.4945 46.3261L61.533 55.1497L59.7402 55.5638L57.7018 46.7403ZM60.9176 44.4537L62.7415 44.0323L65.5075 56.005C65.7524 57.065 65.6686 57.6263 65.1135 58.0666C64.5583 58.5068 63.5594 58.8033 62.2343 59.1094C62.0339 58.5974 61.5744 57.8168 61.187 57.348C62.1331 57.1787 63.0805 56.9434 63.3923 56.8713C63.6693 56.7909 63.7448 56.6914 63.68 56.4108L60.9176 44.4537ZM66.657 44.7206L80.2197 41.5873L80.6411 43.4113L67.0783 46.5446L66.657 44.7206ZM71.8969 41.4574L73.8612 41.0036L77.243 55.642L75.2787 56.0958L71.8969 41.4574ZM73.743 48.4534L75.4388 48.6856C74.5486 51.7979 72.5897 54.7629 70.1101 56.6823C69.7059 56.2831 68.9214 55.6597 68.4141 55.3828C70.8697 53.7152 72.9522 51.0008 73.743 48.4534ZM75.4399 48.1927C77.2464 50.0415 80.2713 51.4775 83.1796 51.8402C82.8055 52.3536 82.3776 53.2735 82.1883 53.8755C79.1876 53.2551 76.1807 51.4701 74.037 49.1573L75.4399 48.1927ZM69.5913 48.8214L70.5024 47.3629C71.3408 47.7932 72.5522 48.4165 73.1735 48.8313L72.2445 50.4253C71.6471 49.9721 70.4561 49.2949 69.5913 48.8214ZM69.6098 46.0583L71.513 45.9799C71.4621 48.3892 70.8054 50.5936 69.6365 52.1445C69.2455 51.8735 68.3879 51.4312 67.9022 51.2479C69.0435 49.9332 69.6127 48.061 69.6098 46.0583ZM77.0575 47.1622L78.0141 45.7588C79.1499 46.2682 80.8866 47.0329 81.7586 47.5376L80.7636 49.1305C79.9468 48.5802 78.2461 47.7579 77.0575 47.1622ZM76.968 44.3584L78.852 44.268C78.8633 46.2359 78.3877 48.0865 77.5845 49.3723C77.1575 49.1589 76.2508 48.8593 75.7675 48.7575C76.6067 47.6276 77.0044 46.0085 76.968 44.3584Z" fill="white"/>
</g>
<defs>
<clipPath id="clip0_750_32686">
<rect width="80" height="80" fill="white" transform="translate(0 18.0076) rotate(-13.0085)"/>
</clipPath>
</defs>
</svg>
