<svg width="144" height="144" viewBox="0 0 144 144" fill="none" xmlns="http://www.w3.org/2000/svg">
<g clip-path="url(#clip0_766_35323)">
<path d="M74.9804 132.555C61.7693 135.175 48.6405 135.817 37.7002 128.051C30.2854 122.8 25.2211 115.352 21.1888 107.655C12.7664 91.5531 9.53358 71.3974 16.444 55.2303C18.6549 50.0944 22.2024 45.6084 26.7373 42.2219C33.3529 37.2905 41.816 35.3143 50.345 34.6503C57.861 34.4099 65.2116 33.7337 71.8586 30.7126C89.4095 23.9081 108.075 25.1482 120.118 38.3904C128.819 47.9483 131.954 60.8151 132.484 73.43C132.92 83.7175 131.715 94.3311 126.987 103.978C123.104 112.008 116.819 118.696 108.972 123.153C100.568 127.813 89.8149 129.212 80.487 131.367C78.6542 131.791 76.8168 132.194 74.9804 132.555Z" fill="#DE3C2B"/>
<path d="M67.764 45.912C66.0935 41.0618 65.4864 35.9132 65.9964 30.791C66.3081 26.3046 66.7685 21.6679 68.4086 17.4225C68.8669 16.2314 69.2911 15.0799 68.6221 13.8648C67.9788 12.8545 66.8632 12.2272 65.6448 12.1821C64.796 12.0095 63.9095 12.1405 63.1435 12.5598C61.9356 13.2603 61.5146 14.7061 61.061 15.9171C59.4268 20.5616 58.4422 25.4036 58.1489 30.2967C57.655 36.1421 57.8848 42.1786 59.9595 47.7045C60.2929 49.0077 61.6232 49.8171 62.9715 49.5372L65.8691 48.8678C69.033 48.1369 67.9239 43.336 64.76 44.067L61.8624 44.7364L64.8743 46.5691C63.1195 41.4012 62.541 35.9089 63.1854 30.4817C63.3753 28.0357 63.7076 25.5989 64.197 23.1891C64.4604 21.9483 64.7671 20.708 65.1445 19.4935C65.4022 18.275 65.8446 17.1087 66.4786 16.0246L65.5365 16.8955L65.8047 16.7492L64.4941 17.052C64.7184 17.0423 64.9575 17.0503 65.1808 17.083C65.4348 17.1086 65.9173 17.3764 65.4509 17.1786L64.3717 16.5219L64.5751 16.7488L63.9576 15.6167C63.8355 15.1813 63.8275 15.5203 63.6917 15.7729C63.5414 16.1027 63.4162 16.4477 63.3137 16.7979C63.1254 17.3366 62.9575 17.8705 62.8045 18.4221C62.4411 19.6966 62.1892 20.9875 61.9625 22.2936C61.5123 24.8735 61.216 27.5126 61.0095 30.1204C60.5652 35.8069 60.8501 41.6621 62.8595 47.0451C63.2032 48.3459 64.5209 49.1477 65.8715 48.8778C67.2207 48.5556 68.069 47.2323 67.7617 45.902L67.764 45.912Z" fill="#47835A"/>
<path d="M38.5052 81.8196C37.443 84.5076 35.1353 87.9351 32.3957 90.5591C31.9578 90.0855 31.1017 89.4006 30.487 89.05C33.3766 86.4529 35.8086 82.5862 36.6834 79.7978L39.0608 79.2485C41.8436 81.7873 45.6742 83.7966 49.0863 84.5273C48.6127 85.232 48.2667 86.133 48 86.9336C44.6329 85.8641 40.7168 83.7513 38.5052 81.8196ZM35.2669 86.5499L43.5682 84.6321L44.068 86.7951L35.7666 88.7129L35.2669 86.5499ZM33.5291 91.2004L44.8119 88.5938L45.3206 90.7958L34.0378 93.4024L33.5291 91.2004ZM44.4222 88.6838L44.7535 88.6073L45.1357 88.3959L47.1325 88.5093C46.7313 91.1268 46.0156 94.5148 45.3987 97.2642L42.7513 97.1779C43.4312 94.4345 44.1844 90.853 44.4807 88.9372L44.4222 88.6838ZM52.5549 77.5064L66.1566 74.364L70.0553 91.2395L67.5415 91.8203L64.1876 77.3027L55.516 79.306L58.8744 93.8431L56.4581 94.4014L52.5549 77.5064ZM55.7239 83.6712L66.2078 81.2492L66.7435 83.5681L56.2596 85.9902L55.7239 83.6712ZM57.2576 90.3987L67.7609 87.9721L68.3057 90.33L57.8023 92.7566L57.2576 90.3987ZM79.2654 71.9309L88.658 69.7609L89.1487 71.885L79.7561 74.0549L79.2654 71.9309ZM78.9695 75.9814L90.3888 73.3433L90.8885 75.5063L79.4692 78.1444L78.9695 75.9814ZM80.3031 79.7992L91.0988 77.3051L91.5985 79.4681L80.8028 81.9622L80.3031 79.7992ZM82.3288 69.3757L84.6477 68.84L86.2009 75.5629L83.882 76.0986L82.3288 69.3757ZM86.372 76.3034L88.6909 75.7677L90.5952 84.0106C90.8698 85.1992 90.7846 85.8963 90.0861 86.4272C89.3877 86.958 88.2904 87.2731 86.8095 87.6152C86.5739 86.9512 86.0326 86.0294 85.5722 85.4584C86.5361 85.2767 87.6078 85.0291 87.9346 84.9331C88.2464 84.8611 88.3303 84.7801 88.2673 84.5073L86.372 76.3034ZM81.728 82.8569L83.2147 81.3845C84.2702 82.0438 85.5866 83.0329 86.2524 83.7823L84.6803 85.4181C84.0729 84.6552 82.782 83.5987 81.728 82.8569ZM73.1577 82.4558C74.9684 81.5859 77.6289 80.1296 80.1425 78.7484L80.927 80.7225C78.6517 82.0692 76.1666 83.4849 74.2406 84.5662L73.1577 82.4558ZM74.2658 71.259L76.4094 70.7638L80.6367 89.0618L78.4931 89.557L74.2658 71.259ZM71.9277 72.8665L73.9529 72.7476C74.2938 75.3784 74.4519 78.1951 74.1555 80.111C73.7372 79.8997 72.7778 79.5672 72.2561 79.4414C72.515 77.7189 72.2835 75.2065 71.9277 72.8665ZM73.0706 75.4147L78.8776 74.0731L79.3908 76.2946L73.1551 77.7352L73.0706 75.4147ZM92.6825 67.9896L109.636 64.0729L109.987 65.5929L93.0337 69.5095L92.6825 67.9896ZM94.6152 69.7805L108.88 66.4851L109.199 67.8686L94.9349 71.164L94.6152 69.7805ZM105.37 70.6623L105.568 71.5197L108.043 70.948L107.845 70.0906L105.37 70.6623ZM101.122 71.6437L101.32 72.5011L103.717 71.9474L103.519 71.09L101.122 71.6437ZM96.9125 72.6161L97.1106 73.4736L99.449 72.9333L99.2509 72.0759L96.9125 72.6161ZM94.5498 71.8072L109.73 68.3002L110.522 71.7299L95.3421 75.2369L94.5498 71.8072ZM99.7155 65.3795L102.034 64.8438L102.908 68.6242L100.589 69.1599L99.7155 65.3795ZM99.5806 78.0346L99.7382 78.7166L108.156 76.7718L107.999 76.0898L99.5806 78.0346ZM100.004 79.8664L100.166 80.5679L108.584 78.6231L108.422 77.9215L100.004 79.8664ZM99.1665 76.2418L99.315 76.8849L107.733 74.9401L107.585 74.297L99.1665 76.2418ZM96.6179 75.5169L109.674 72.5006L111.241 79.282L98.1846 82.2983L96.6179 75.5169ZM105.891 81.6263L107.627 80.0759C109.848 80.0963 112.496 80.1826 114.074 80.3516L111.546 82.0237C110.303 81.7977 108.132 81.6423 105.891 81.6263ZM101.451 81.4205L103.655 81.8967C102.15 83.0244 99.6961 84.3097 97.7745 85.1436C97.2812 84.7854 96.3412 84.1816 95.749 83.9284C97.8235 83.2233 100.165 82.2513 101.451 81.4205Z" fill="white"/>
</g>
<defs>
<clipPath id="clip0_766_35323">
<rect width="120" height="120" fill="white" transform="translate(0 27.0117) rotate(-13.0085)"/>
</clipPath>
</defs>
</svg>
