<svg width="50" height="50" viewBox="0 0 50 50" fill="none" xmlns="http://www.w3.org/2000/svg">
<g clip-path="url(#clip0_716_30054)">
<path d="M20.5403 49.8803C14.9312 49.7049 9.54107 48.734 5.82796 44.5552C3.31023 41.728 1.95284 38.2293 1.0377 34.7263C-0.8714 27.3995 -0.293416 18.9136 4.02833 12.9983C5.40761 11.1206 7.26854 9.63219 9.42723 8.68266C12.5755 7.30114 16.1966 7.29258 19.7215 7.82295C22.7953 8.43031 25.8428 8.84519 28.8247 8.24211C36.5881 7.12577 44.0493 9.37984 47.6968 15.8854C50.3327 20.5817 50.3984 26.0993 49.4307 31.2703C48.6426 35.4876 47.1582 39.6835 44.334 43.1566C42.0045 46.0522 38.8256 48.178 35.222 49.2515C31.3731 50.355 26.8762 49.9145 22.8872 49.9145C22.1035 49.9145 21.3197 49.9059 20.5403 49.8803Z" fill="#DE3C2B"/>
<path d="M25.7381 14.0291C25.5148 11.9033 25.7512 9.75619 26.4387 7.72454C26.986 5.93241 27.6078 4.09323 28.6718 2.52351C28.9695 2.08297 29.2498 1.65525 29.0921 1.09922C28.9258 0.628731 28.5317 0.26945 28.0413 0.136858C27.7129 -0.0128426 27.3407 -0.0427827 26.9904 0.0555919C26.4343 0.226678 26.1278 0.774155 25.83 1.22326C24.731 2.95551 23.8772 4.8289 23.2992 6.78784C22.5504 9.11462 22.0775 11.5868 22.4015 14.0248C22.4147 14.5851 22.8788 15.0385 23.4524 15.0513H24.6916C26.0446 15.0513 26.0446 12.9983 24.6916 12.9983H23.4524L24.5033 14.0248C24.2756 11.7622 24.5558 9.47818 25.3265 7.33532C25.633 6.36013 25.9964 5.40204 26.4212 4.46962C26.6445 3.99058 26.8853 3.51581 27.1524 3.05816C27.3713 2.58767 27.6603 2.15568 28.0194 1.77501L27.5552 2.04019L27.6778 2.00598H27.1174C27.2093 2.02309 27.3057 2.04875 27.3932 2.08297C27.4939 2.11718 27.6647 2.27116 27.4939 2.14712L27.1174 1.77929L27.1787 1.89049L27.0342 1.37296C27.0254 1.18476 26.9904 1.32163 26.9116 1.41145C26.8196 1.53121 26.7364 1.65953 26.662 1.79212C26.535 1.99315 26.4168 2.19417 26.3029 2.40375C26.0358 2.88707 25.8125 3.3875 25.598 3.89648C25.1732 4.90161 24.8054 5.94524 24.477 6.98459C23.7633 9.25149 23.3298 11.6552 23.6407 14.0291C23.6582 14.5894 24.118 15.0385 24.6916 15.0556C25.2696 15.0513 25.7381 14.5937 25.7381 14.0248V14.0291Z" fill="#47835A"/>
<g clip-path="url(#clip1_716_30054)">
<path d="M18.2092 27.3886C17.7889 27.7276 17.1976 27.9604 16.3739 27.9698C15.2236 27.8417 14.5788 27.0989 14.2535 26.1514C13.9205 25.1814 13.9571 24.0699 14.1514 23.4165C14.7277 22.0016 15.6422 21.5255 16.463 21.501C17.3357 21.475 18.1885 21.9523 18.6092 22.6011C19.1616 23.4608 19.4043 24.843 19.0828 25.9928C18.925 26.5573 18.6378 27.043 18.2092 27.3886Z" stroke="white"/>
<path d="M36.0515 23.3293C35.469 21.9812 34.5729 21.5239 33.7679 21.5009C32.8943 21.476 32.0412 21.9554 31.6203 22.609L36.0515 23.3293ZM36.0515 23.3293L36.0717 23.3952C36.2712 24.0457 36.3121 25.1727 35.9755 26.1553C35.6498 27.1059 35.0047 27.8504 33.8552 27.9784C33.0286 27.9691 32.4361 27.7361 32.0155 27.3971C31.5867 27.0516 31.2998 26.5662 31.1426 26.0019C30.8222 24.8522 31.0673 23.4694 31.6202 22.6091L36.0515 23.3293Z" stroke="white"/>
<g clip-path="url(#clip2_716_30054)">
<path d="M28.327 38.2873C27.3767 38.7134 26.3512 38.9388 25.3137 38.9477C24.0995 38.9642 22.8853 38.8157 21.7105 38.5044C19.0379 37.8043 16.5346 36.5702 14.3521 34.8704C13.1622 33.9568 12.0999 32.8874 11.1926 31.6897C10.8883 31.3473 10.368 31.3183 10.0253 31.6191C9.69034 31.9298 9.65637 32.4499 9.94863 32.7957C11.7807 35.1493 14.1126 37.056 16.7784 38.3805C19.2959 39.6706 22.1135 40.6128 24.9717 40.6194C26.3812 40.6491 27.7831 40.3612 29.0684 39.7783C30.0351 39.3135 29.2926 37.8258 28.327 38.2873Z" fill="white"/>
</g>
</g>
</g>
<defs>
<clipPath id="clip0_716_30054">
<rect width="50" height="50" fill="white"/>
</clipPath>
<clipPath id="clip1_716_30054">
<rect width="30.33" height="24.75" fill="white" transform="translate(13.5 21)"/>
</clipPath>
<clipPath id="clip2_716_30054">
<rect width="5" height="21" fill="white" transform="translate(29.9922 37.7856) rotate(108.289)"/>
</clipPath>
</defs>
</svg>
