<svg width="100" height="30" viewBox="0 0 100 30" fill="none" xmlns="http://www.w3.org/2000/svg">
<path d="M22.2821 24.4501C22.0682 24.1457 21.1526 24.2028 19.5418 24.6174C18.8902 24.8114 18.4758 24.9674 18.2987 25.0891C18.1182 25.2108 18.0447 25.4087 18.0714 25.6825V26.1238H22.2821L22.3623 25.3478C22.4058 24.8609 22.379 24.5642 22.2821 24.4501ZM15.144 21.4069C15.4113 21.114 15.6118 20.9314 15.7455 20.8591C15.8792 20.7907 16.073 20.7526 16.3337 20.7526C16.7948 20.7526 17.1424 20.8744 17.3763 21.1178C17.5434 21.3118 17.6871 21.4183 17.8041 21.4373C17.9277 21.4488 18.2084 21.4145 18.6462 21.3308C19.2243 21.1711 19.9328 21.057 20.7716 20.9961C23.5587 20.7526 25.2163 21.5591 25.7443 23.4154C25.8679 23.8338 25.8679 24.7201 25.7443 26.0781C25.6273 27.4247 25.4836 28.2768 25.3165 28.6344C25.0759 29.068 24.715 29.3343 24.2338 29.4256C23.7525 29.5245 22.379 29.5778 20.1166 29.5778C18.2452 29.6082 17.0689 29.6082 16.5876 29.5778C16.1064 29.5473 15.7722 29.4636 15.5851 29.3343C15.1907 29.0604 14.9468 28.6876 14.8499 28.2236C14.7597 27.7557 14.6928 26.7172 14.6494 25.1043L14.5692 22.0308L15.144 21.4069ZM21.8544 12.6731C21.6405 12.5628 21.2462 12.4981 20.678 12.4753C20.1166 12.4448 19.5953 12.4715 19.1141 12.5514C16.6879 12.9888 15.4781 13.3426 15.4781 13.6165C15.4781 13.78 15.7622 13.8371 16.3337 13.7838C16.9552 13.723 17.8709 13.6697 19.074 13.6165C19.9629 13.586 20.511 13.5822 20.7181 13.6012C20.922 13.6127 21.0958 13.7001 21.2395 13.8599C21.4066 14.0539 21.4968 14.3088 21.5068 14.6207C21.5235 14.9364 21.4567 15.1913 21.3063 15.3815C21.2161 15.5146 21.039 15.6097 20.7716 15.6706C20.5043 15.7238 19.9027 15.7733 18.967 15.8227C17.1123 15.914 16.1398 15.9597 16.0529 15.9597C15.7121 15.9597 15.5082 15.9825 15.438 16.0205C15.3645 16.0624 15.3311 16.1803 15.3311 16.3705V16.7813H18.566C20.0799 16.7813 21.0055 16.7661 21.3464 16.7357C21.6839 16.7053 21.8878 16.6102 21.9613 16.4466C22.0315 16.2031 22.0883 15.5755 22.1351 14.5598L22.2554 12.9622L21.8544 12.6731ZM18.2452 0.393988C18.5125 0.314106 18.7398 0.287478 18.9269 0.31791C19.0773 0.371165 19.2243 0.393988 19.368 0.393988C19.5084 0.393988 20.267 1.16238 21.6405 2.69156C22.6898 3.87078 23.5119 4.74188 24.1001 5.30867C24.6949 5.86785 25.497 6.52593 26.5062 7.28671C27.228 7.86491 27.6591 8.29095 27.8028 8.56484C28.0869 9.22672 28.0635 9.85056 27.736 10.4364C27.4152 11.026 26.9206 11.3189 26.2522 11.3189C25.8846 11.3189 25.0692 10.8244 23.806 9.82774C22.5495 8.8235 21.3665 7.75079 20.2637 6.60201C19.7824 6.1075 19.4349 5.74993 19.221 5.53691L18.8601 5.12608L18.0313 6.06946C16.728 7.4617 15.6954 8.46974 14.9301 9.09739L14.6093 9.34084L14.9301 9.75166C15.0972 9.94566 15.2676 10.0408 15.438 10.0408C15.6051 10.0408 16.1098 9.96088 16.9486 9.79731C17.0722 9.76688 17.1524 9.6908 17.1892 9.56907C17.2226 9.44735 17.2426 9.16966 17.2426 8.73221C17.2426 8.29856 17.2627 8.00185 17.3095 7.8497C17.3529 7.69754 17.4966 7.48452 17.7372 7.21064C18.1015 6.82644 18.4624 6.63244 18.82 6.63244C19.1842 6.63244 19.4883 6.6895 19.729 6.79981C19.9863 6.94436 20.2035 7.20683 20.384 7.59103C20.5711 7.96762 20.6647 8.3328 20.6647 8.68656V9.38649L21.4935 9.46256C22.4993 9.63754 23.3515 9.93045 24.0466 10.3451C24.7484 10.7521 25.2229 11.239 25.4636 11.8058C25.624 12.2432 25.7075 12.7758 25.7175 13.4034C25.7342 14.0349 25.6707 15.0734 25.5304 16.5227C25.4301 17.5383 25.3466 18.1812 25.2764 18.4551C25.2029 18.7289 25.096 18.98 24.9556 19.2006C24.6882 19.4973 24.3841 19.6989 24.0466 19.8093C23.7325 19.9234 22.1017 19.9766 19.1542 19.9766H14.7563L14.4221 21.3308C14.1815 22.2362 14.0612 22.7003 14.0612 22.7307C14.0612 22.8334 13.834 23.4724 13.3795 24.6479C12.925 25.8271 12.6242 26.5384 12.4839 26.7933C12.1898 27.2802 11.8055 27.5769 11.3343 27.691C10.8698 27.8013 10.4453 27.71 10.0644 27.4171C9.68006 27.1318 9.43945 26.6906 9.34254 26.0934C9.26902 25.7396 9.43945 25.0815 9.8505 24.1153C11.0703 21.0341 11.7553 17.5725 11.9091 13.7382L11.9759 11.4863L11.4679 11.608C11.2541 11.6308 10.9734 11.5699 10.6258 11.4254C10.2783 11.2732 10.1045 11.1173 10.1045 10.9537C10.1045 10.8624 10.0577 10.8168 9.9708 10.8168C9.8906 10.8168 9.8505 10.9309 9.8505 11.1515C9.8505 11.3455 9.68006 11.6346 9.34254 12.0188C9.10192 12.2927 8.9081 12.4563 8.76774 12.5057C8.62404 12.559 8.37006 12.5818 8.0058 12.5818H7.15029V15.6706L7.68499 15.5489C8.50374 15.3282 9.14537 15.4271 9.60988 15.8532C10.0811 16.2792 10.2816 16.9031 10.2114 17.7247C10.1379 18.242 9.94741 18.6605 9.63662 18.9724C9.32249 19.2881 8.84126 19.5126 8.19294 19.6419L7.15029 19.8549V22.0308C7.15029 23.5029 7.0868 24.4881 6.96315 24.9826C6.81945 25.4505 6.54208 25.9374 6.13437 26.4433C5.72333 26.9492 5.33902 27.2954 4.98478 27.478C4.64392 27.6682 4.18608 27.7823 3.60795 27.8127C3.02647 27.8432 2.57198 27.7747 2.24448 27.6149C1.39565 27.2802 0.86764 26.7667 0.653763 26.0781C0.439885 25.3782 0.593609 24.7163 1.12162 24.0849C1.3355 23.8338 1.51261 23.6969 1.65631 23.6741C1.8067 23.6436 2.12417 23.6436 2.60539 23.6741L3.64805 23.7501V20.3875L3.24703 20.5092C2.21106 20.7336 1.48254 20.7336 1.05478 20.5092C0.500039 20.2886 0.162513 19.8359 0.0388648 19.155C-0.0780997 18.4779 0.0689411 17.8883 0.479987 17.39C0.720599 17.0856 0.934477 16.9031 1.12162 16.8422C1.31545 16.7737 1.76325 16.6824 2.45835 16.5683L3.58121 16.3705V12.5057L2.45835 12.4296C1.8067 12.3688 1.34886 12.2737 1.08152 12.1405C0.820855 11.9998 0.593609 11.7677 0.399783 11.4406C0.159171 10.9765 0.0856501 10.5048 0.185906 10.0255C0.282819 9.55005 0.523431 9.12021 0.907742 8.73221C1.14835 8.51158 1.64295 8.39746 2.39152 8.39746H3.50101V6.67809C3.50101 5.7271 3.55782 5.03479 3.67478 4.60875C3.79843 4.18271 4.01565 3.83274 4.32978 3.55886C4.54366 3.36866 4.84108 3.26596 5.22539 3.25455C5.61639 3.23553 5.93386 3.29639 6.17448 3.43713C6.72588 3.7947 7.00325 4.51745 7.00325 5.61298C7.00325 6.21401 7.0233 6.86828 7.07009 7.57581L7.17703 8.51919L8.0058 8.61048C8.55721 8.63331 8.96825 8.79307 9.2356 9.09739L9.63662 9.55386L9.81039 9.02131C9.93404 8.63711 10.3317 8.19586 11.0001 7.69754C12.6109 6.44224 14.3185 4.73047 16.1198 2.56984C17.2493 1.23085 17.9578 0.508106 18.2452 0.393988Z" fill="#47835A"/>
<path d="M43.3209 23.7212C43.4987 23.6412 43.7546 23.5993 44.0888 23.5993C44.5723 23.5993 44.9065 23.8241 45.0985 24.2699C45.2869 24.7081 45.4184 25.5272 45.4967 26.7236C45.5535 27.4323 45.5678 27.8743 45.5393 28.0496C45.5109 28.2325 45.4113 28.4344 45.2407 28.6592C44.6719 29.2079 44.1066 29.2231 43.5484 28.7049C43.3671 28.5297 43.2391 28.3239 43.1645 28.0801C43.0863 27.8362 43.0116 27.3257 42.937 26.556C42.8019 25.6339 42.7592 24.971 42.809 24.5747C42.8659 24.1708 43.0365 23.885 43.3209 23.7212ZM40.0217 23.9651C40.2493 23.7212 40.5266 23.5993 40.8608 23.5993C41.4936 23.5993 41.9166 23.8584 42.1264 24.3766C42.2295 24.7119 42.2828 25.291 42.2828 26.114C42.2828 26.937 42.2295 27.5505 42.1264 27.9581C42.0197 28.343 41.8206 28.6211 41.5291 28.7964C41.234 28.9793 40.9354 29.0288 40.6332 28.9488C40.2422 28.8878 39.9933 28.6935 39.8795 28.3696C39.7658 28.042 39.7089 27.3561 39.7089 26.3121C39.7089 25.4701 39.7267 24.9252 39.7658 24.6814C39.8013 24.4299 39.8866 24.1899 40.0217 23.9651ZM45.9233 24.4223C45.9695 24.1784 46.101 23.9498 46.3215 23.7365C46.5383 23.5155 46.8512 23.4316 47.26 23.4926C47.676 23.5459 47.9462 23.6602 48.0706 23.8431C48.2199 24.0679 48.4403 24.6814 48.7247 25.6873C49.0091 26.6817 49.1513 27.318 49.1513 27.5924C49.1513 27.8667 49.0234 28.1715 48.7674 28.5068C48.5114 28.8497 48.2732 29.025 48.0564 29.025C47.8359 29.025 47.6084 28.964 47.3738 28.8421C47.1462 28.7202 46.9934 28.5754 46.9187 28.4154C46.7374 28.0572 46.5205 27.3523 46.2646 26.2969C46.0086 25.2415 45.8948 24.6166 45.9233 24.4223ZM37.3767 23.645C37.7251 23.4545 38.0913 23.4316 38.4717 23.584C38.8592 23.7365 39.1045 24.0336 39.2112 24.468C39.2574 24.6814 39.1898 25.1767 39.0121 25.9464C38.8414 26.7084 38.6281 27.3942 38.3722 28.0039C38.134 28.5716 37.7607 28.8916 37.2487 28.964C36.7439 29.0326 36.3742 28.8192 36.1395 28.3239C35.912 27.8667 35.9618 27.0894 36.296 25.9921C36.655 24.5899 37.0141 23.8088 37.3767 23.645ZM51.7964 3.58816C52.2514 3.31383 52.7136 3.18428 53.19 3.1919C53.6628 3.20334 54.0717 3.37479 54.413 3.71009C54.7614 4.03777 55.028 4.40736 55.2093 4.82267C55.3871 5.23036 55.4297 5.69901 55.3373 6.22482C55.252 6.743 54.9889 7.1926 54.5552 7.566C54.0894 8.03466 53.5882 8.27851 53.0478 8.29756C52.5145 8.30899 52.0239 8.12229 51.5688 7.73365C50.9218 7.16593 50.6196 6.44962 50.6587 5.5847C50.6943 4.7236 51.0747 4.05682 51.7964 3.58816ZM58.9209 2.23174C59.5075 1.84691 60.0941 1.78975 60.6842 2.06409C61.2708 2.33842 61.6441 2.83375 61.8076 3.54244C61.9001 4.04158 61.5801 5.30275 60.8407 7.32215C60.5349 8.09562 60.3856 8.53379 60.3856 8.63286C60.3856 8.7243 60.7411 8.75478 61.4521 8.7243C62.0387 8.7243 62.4831 8.81575 62.7889 8.99863C63.1017 9.1739 63.3612 9.5092 63.571 10.0045C63.9016 10.6865 63.827 11.3571 63.3435 12.0163C63.0591 12.344 62.7035 12.5612 62.2769 12.6717C61.8574 12.786 61.1251 12.8393 60.0727 12.8393H58.3094V14.7292L59.959 14.8054C60.8584 14.8587 61.4557 14.9349 61.7508 15.034C62.0423 15.1254 62.2911 15.3655 62.4902 15.7503C62.8955 16.4933 62.8955 17.221 62.4902 17.9297C62.2911 18.2879 62.0281 18.5165 61.7081 18.6156C61.3846 18.707 60.7767 18.7527 59.8879 18.7527H58.3094V20.3987L60.3429 20.3073C61.4984 20.2577 62.2805 20.2844 62.6893 20.3835C63.0946 20.4749 63.4359 20.7416 63.7132 21.176C63.891 21.4503 63.987 21.8161 63.9976 22.2733C64.0154 22.7229 63.9336 23.0811 63.7559 23.3554C63.5568 23.7136 63.2759 23.946 62.9169 24.0565C62.5542 24.1708 61.7721 24.2508 60.5705 24.3004L58.3094 24.4223V26.1902C58.3094 27.1542 58.2525 27.8438 58.1387 28.263C58.025 28.6897 57.8152 29.0136 57.513 29.2384C57.0758 29.5622 56.6029 29.6689 56.091 29.5584C55.579 29.4441 55.1418 29.1622 54.7827 28.7049C54.6583 28.4801 54.5765 28.2325 54.5409 27.9581C54.5018 27.6838 54.4841 27.1656 54.4841 26.4036V24.5442H50.033L49.5353 24.0108C48.8883 23.3021 48.7318 22.5477 49.066 21.7552C49.322 21.237 49.6526 20.9017 50.0615 20.7493C50.4774 20.5969 51.2204 20.5207 52.2941 20.5207C53.3926 20.5207 54.0503 20.4749 54.2708 20.3835C54.4876 20.2844 54.5694 19.9415 54.5125 19.3624L54.4841 18.6765L52.7918 18.5851L51.0569 18.5394L50.6018 17.9297C49.9655 17.221 49.8908 16.4361 50.3743 15.5826C50.5805 15.2092 50.8898 14.9425 51.2987 14.7901C51.7039 14.6377 52.3154 14.5768 53.1331 14.6072L54.4841 14.6834L54.5125 13.8604L54.5552 13.0832L52.6354 13.1136C51.3555 13.1746 50.5485 13.1098 50.2179 12.9155C49.5815 12.5612 49.2296 11.9934 49.1656 11.2085C49.098 10.4275 49.3575 9.83307 49.9477 9.42538C50.2037 9.26535 50.5734 9.14723 51.0569 9.07484C51.5475 9.00626 52.4434 8.96815 53.7446 8.96815H56.0057L56.5887 7.65745C56.9193 6.86493 57.2642 5.92 57.6268 4.82267C57.929 3.80916 58.1565 3.17285 58.3094 2.91757C58.4587 2.65467 58.6649 2.42606 58.9209 2.23174ZM41.0883 18.6765V17.8078H40.4057C40.0715 17.8078 39.8724 17.8307 39.8084 17.8688C39.7409 17.9107 39.7373 18.0135 39.7942 18.1736C39.8404 18.4479 39.8653 18.7375 39.8653 19.0423C39.8653 19.2861 39.8938 19.4386 39.9506 19.4995C40.0146 19.5529 40.1924 19.5757 40.4768 19.5757H41.0883V18.6765ZM44.9705 18.5394C44.9705 18.1355 44.9492 17.884 44.9136 17.7926C44.8745 17.6935 44.775 17.6554 44.615 17.6859C44.2061 17.7164 43.9644 17.7773 43.8897 17.8688C43.8115 17.9602 43.776 18.2002 43.776 18.5851C43.776 19.0537 43.8329 19.3471 43.9466 19.469C44.0604 19.591 44.2737 19.6024 44.5865 19.4995C44.7643 19.469 44.8745 19.4005 44.9136 19.2861C44.9492 19.1757 44.9705 18.928 44.9705 18.5394ZM41.0883 14.3481C41.0883 13.8604 41.0385 13.5937 40.9461 13.5404C40.8608 13.4794 40.5906 13.548 40.1355 13.7385C39.8511 13.8528 39.6805 13.9481 39.6236 14.0281C39.5738 14.1119 39.5667 14.3024 39.5951 14.6072C39.6236 14.8816 39.6662 15.0454 39.7231 15.0949C39.7871 15.1483 40.0004 15.1711 40.363 15.1711L41.0883 15.2169V14.3481ZM44.8567 12.9612C44.6754 12.8012 44.487 12.6831 44.2879 12.6107C44.0959 12.5421 43.9644 12.5459 43.8897 12.6259C43.8115 12.6869 43.776 13.1136 43.776 13.9062V15.0949H45.1127V14.15C45.1127 13.5213 45.0274 13.1251 44.8567 12.9612ZM40.1355 0.631457C40.4661 0.357123 40.8608 0.258059 41.3158 0.326642C41.778 0.387605 42.1548 0.581925 42.4392 0.905791C43.0258 1.62973 43.1147 2.38414 42.7094 3.17666C42.5281 3.64532 42.4606 3.90441 42.5103 3.95394C42.5388 4.00729 42.937 4.07587 43.7049 4.16731C44.5652 4.30067 45.2158 4.50261 45.6531 4.77694C46.0868 5.05128 46.4352 5.50469 46.6912 6.13337C46.8689 6.54106 46.94 6.93351 46.9045 7.30691C46.8654 7.67269 46.6912 8.14515 46.3783 8.7243L45.8806 9.86736C45.9091 9.86736 46.1792 9.9969 46.6912 10.2484C47.2031 10.5227 47.5729 10.8809 47.8004 11.3152L48.1843 11.8944L48.227 15.9637C48.2555 18.3717 48.2341 19.8882 48.1701 20.5054C48.1026 21.115 47.9035 21.5875 47.5729 21.9228L47.1462 22.4105L42.6668 22.5324C40.6474 22.5858 39.3534 22.6048 38.7846 22.5934C38.2228 22.5858 37.846 22.5096 37.6469 22.3648C37.3341 22.2048 37.1101 22.0066 36.9785 21.7704C36.8541 21.538 36.7581 21.1417 36.6941 20.5816C36.6373 20.0253 36.5697 18.9775 36.495 17.442C36.3599 14.813 36.2711 13.1403 36.2249 12.4278C36.168 11.6886 36.2284 11.14 36.4097 10.7818C36.6941 10.2865 37.0923 10.016 37.6042 9.97404C38.1162 9.93594 38.5606 10.0922 38.941 10.4465L39.3249 10.858L40.363 10.4922C40.875 10.3322 41.2056 10.195 41.3585 10.0807C41.5078 9.97023 41.7033 9.71114 41.9415 9.30345C42.2721 8.69382 42.4392 8.3509 42.4392 8.26708C42.4392 8.13753 42.1442 8.03847 41.5576 7.9775C40.939 7.89749 40.5657 7.83272 40.4341 7.77937C40.2813 7.69936 39.9862 7.95845 39.5525 8.55665C39.1436 9.1358 38.7597 9.49396 38.4006 9.62351C37.6896 9.84831 37.0816 9.6959 36.5804 9.16628C36.0862 8.62905 35.9404 7.98893 36.1395 7.24595C36.2142 6.8916 36.5733 6.23244 37.2203 5.26465C37.8353 4.36163 38.4219 3.40528 38.9836 2.39939C39.4671 1.43541 39.8511 0.844828 40.1355 0.631457Z" fill="#DE3C2B"/>
<path d="M78.4472 22.4096C78.8316 22.0318 79.2868 21.8928 79.8095 21.9962C80.3287 22.0924 80.6997 22.3953 80.9155 22.9085C81.1582 23.4217 81.401 24.0311 81.6438 24.7332C81.8866 25.4388 82.008 25.8629 82.008 26.0161C82.008 26.2513 81.9338 26.5079 81.7922 26.7859C81.6472 27.071 81.4752 27.2884 81.2796 27.4416C81.0369 27.6198 80.7131 27.6982 80.3085 27.6697C79.9106 27.6483 79.5937 27.5201 79.3509 27.2848C79.0811 27.0568 78.7844 26.5079 78.4607 25.6455C78.137 24.7724 77.9751 24.0774 77.9751 23.5643C77.9751 23.2613 78.0021 23.0368 78.056 22.8943C78.1167 22.7517 78.2482 22.5913 78.4472 22.4096ZM74.1446 22.2528C74.6099 21.9214 75.0955 21.8643 75.6013 22.0817C76.1138 22.3027 76.4544 22.6911 76.6263 23.2506C76.6971 23.5072 76.714 23.746 76.6803 23.9634C76.6432 24.1844 76.5252 24.5871 76.3296 25.1751C76.0126 26.0945 75.7833 26.6754 75.6417 26.9142C75.3517 27.3419 74.9538 27.5735 74.4413 27.6127C73.9288 27.6483 73.5039 27.4773 73.1734 27.0995C72.8767 26.736 72.7216 26.3761 72.7149 26.0161C72.7047 25.6669 72.843 25.0397 73.133 24.1345C73.3758 23.4716 73.5545 23.019 73.6725 22.7802C73.7973 22.5343 73.9557 22.3597 74.1446 22.2528ZM78.9193 15.952H75.7901V17.292H77.2737C78.2718 17.292 78.7709 17.2172 78.7709 17.0639C78.7709 16.9606 78.7911 16.7432 78.8383 16.4082L78.9193 15.952ZM78.8788 12.8729V12.3312H75.6417L75.6822 12.9157C75.699 13.1723 75.726 13.3362 75.7631 13.4004C75.7968 13.4574 75.9014 13.4859 76.0733 13.4859C76.2419 13.4859 76.7781 13.4788 77.6784 13.4574L78.8788 13.4146V12.8729ZM78.7304 8.38257C78.3865 8.12598 77.7795 8.12598 76.9096 8.38257C76.3498 8.53581 75.9991 8.66767 75.8575 8.78171C75.7125 8.89575 75.6552 9.09533 75.6822 9.38043C75.6822 9.45883 75.6856 9.52298 75.6957 9.58C75.7024 9.62989 75.7125 9.67622 75.7226 9.72255C75.7395 9.77244 75.753 9.80452 75.7631 9.82234C75.78 9.83303 75.7901 9.83659 75.7901 9.83659C75.8609 9.80808 76.4173 9.79383 77.4626 9.79383H79.0272V9.18086C79.0272 8.8031 78.926 8.53581 78.7304 8.38257ZM72.553 4.91858C72.8666 4.55864 73.2341 4.36976 73.659 4.34838C74.0805 4.31986 74.448 4.45885 74.765 4.76177C74.9876 4.97204 75.1595 5.08251 75.2775 5.08964C75.4023 5.10033 75.6687 5.06826 76.0733 4.98985C76.6837 4.84018 77.3412 4.76177 78.0426 4.76177C80.0556 4.79028 81.401 5.52442 82.0754 6.95706L82.4396 7.75535V11.5329C82.4396 14.0704 82.4025 16.0447 82.3317 17.4488C82.2845 18.5037 82.244 19.1559 82.2103 19.4018C82.1732 19.6405 82.0552 19.8579 81.8596 20.0575C81.5696 20.421 81.1346 20.6527 80.5513 20.756C79.9646 20.8629 78.8012 20.9128 77.0579 20.9128C75.3854 20.9128 74.2929 20.8558 73.7804 20.7417C73.2746 20.6277 72.8902 20.364 72.6204 19.9435C72.4754 19.7439 72.3777 19.441 72.3237 19.0311C72.2765 18.6142 72.2327 17.5593 72.1888 15.8665C72.1146 13.0832 72.0674 10.7418 72.0405 8.83873L72 5.46027L72.553 4.91858ZM88.5631 22.5664C89.0385 22.5664 89.3184 22.5486 89.3993 22.5094C89.487 22.4737 89.5342 22.3633 89.5342 22.1815C89.5342 22.0033 89.487 21.8928 89.3993 21.8536C89.3184 21.818 89.0385 21.7966 88.5631 21.7966C88.0944 21.7966 87.8111 21.818 87.7133 21.8536C87.6223 21.8928 87.5785 22.0033 87.5785 22.1815C87.5785 22.3633 87.6223 22.4737 87.7133 22.5094C87.8111 22.5486 88.0944 22.5664 88.5631 22.5664ZM94.6731 22.0247C94.6731 21.8465 94.6259 21.736 94.5382 21.6968C94.4573 21.6612 94.2212 21.6398 93.8368 21.6398H92.9601V22.5949L93.6075 22.4809C94.0931 22.4345 94.3696 22.4096 94.4438 22.4096C94.5955 22.4096 94.6731 22.2813 94.6731 22.0247ZM89.5342 18.9456C89.5342 18.689 89.4971 18.5572 89.4263 18.5465C89.3521 18.5393 89.025 18.6177 88.4417 18.7888C87.8381 19.0276 87.5515 19.2236 87.5785 19.3733C87.6223 19.5265 88.0236 19.5657 88.7789 19.4873C89.1633 19.441 89.3858 19.3946 89.4398 19.3447C89.5005 19.2877 89.5342 19.1559 89.5342 18.9456ZM93.8638 18.3326C93.4322 18.2293 93.1692 18.2043 93.0815 18.2614C93.0006 18.3113 92.9601 18.4859 92.9601 18.7888V19.416H93.8368C94.3662 19.416 94.6663 19.3804 94.7405 19.302C94.8113 19.1701 94.7439 18.9955 94.5382 18.7745C94.3291 18.5572 94.1066 18.411 93.8638 18.3326ZM92.1239 10.4496V9.95063H90.2625V10.9913H92.1239V10.4496ZM92.1239 6.57217V6.03048H90.2625V7.11387H92.1239V6.57217ZM88.0101 0.456731C88.6103 0.324872 89.1363 0.456731 89.5881 0.855874C90.0366 1.25502 90.2625 1.77889 90.2625 2.42394V2.8801H92.2722V2.33841C92.2722 1.56863 92.5352 1.01981 93.068 0.684813C93.5974 0.353382 94.147 0.310617 94.7135 0.556517C95.2868 0.79529 95.624 1.29778 95.7251 2.06756L95.833 2.68053L96.993 2.76606C97.5055 2.78744 97.836 2.82308 97.9911 2.8801C98.1529 2.92999 98.3047 3.05829 98.4497 3.26499C99.006 3.97774 98.9555 4.68337 98.3013 5.37474C98.0855 5.60282 97.8967 5.74538 97.7348 5.8024C97.5797 5.85229 97.2492 5.87367 96.7367 5.87367H95.6442V7.11387H96.4535C97.4246 7.11387 98.0181 7.43461 98.2339 8.06896C98.3485 8.45028 98.3485 8.76746 98.2339 9.02405C97.9911 9.64415 97.4178 9.95063 96.5209 9.95063H95.6442V10.9913H97.0334C97.8056 10.9913 98.3316 11.0483 98.6115 11.1623C98.888 11.2764 99.1139 11.5151 99.2859 11.8751C99.5995 12.5415 99.4646 13.1153 98.8813 13.5999C98.6924 13.7817 98.5036 13.8922 98.3148 13.9278C98.1327 13.967 97.7078 13.9848 97.0334 13.9848C96.1331 13.9848 95.2126 14.0133 94.2684 14.0704L92.9601 14.1844V14.5978C92.9601 14.8081 92.9871 14.947 93.041 15.0112C93.1017 15.0789 93.2568 15.1217 93.4996 15.1395C94.1099 15.2179 94.7675 15.3961 95.4688 15.6812C96.1702 15.9663 96.6625 16.2478 96.9525 16.5222C97.465 16.9891 97.7888 17.4417 97.9236 17.8765C98.0585 18.3148 98.126 19.1309 98.126 20.3284L98.0855 22.4096H98.5576C99.1847 22.4096 99.6231 22.7196 99.8659 23.3362C100.109 23.9456 100.021 24.4695 99.6096 24.9042C99.3466 25.1893 99.0229 25.3568 98.6385 25.4032L98.0181 25.4887L97.8697 26.4438C97.7416 27.2599 97.5392 27.8693 97.2627 28.2684C96.9829 28.6676 96.5209 29.0311 95.8735 29.3661C95.3879 29.5728 94.7439 29.6833 93.9447 29.694C93.1422 29.7011 92.5959 29.6084 92.2992 29.4089C91.8845 29.0739 91.6552 28.6818 91.6113 28.2257C91.5641 27.7766 91.7091 27.3775 92.0429 27.0282C92.4375 26.5899 92.9871 26.4616 93.6885 26.6434C94.0459 26.736 94.2549 26.761 94.3089 26.7146C94.3797 26.6647 94.437 26.4616 94.4842 26.1017L94.5517 25.56H93.3917C92.5184 25.56 91.3685 25.5992 89.9388 25.674L87.7133 25.7595V26.9855C87.7133 27.5735 87.6931 27.9477 87.6594 28.1116C87.6223 28.2827 87.5178 28.4823 87.3492 28.7104C87.0862 29.024 86.7726 29.2271 86.405 29.3233C86.0712 29.4552 85.707 29.4302 85.3125 29.252C84.6381 28.8707 84.3009 28.1295 84.3009 27.0282C84.3009 26.458 84.2638 26.0945 84.193 25.9449C84.1188 25.7952 83.9266 25.7168 83.613 25.7168C83.2961 25.7168 83.0061 25.5671 82.7363 25.2606C82.2777 24.8258 82.1597 24.2913 82.3856 23.664C82.6183 23.0368 83.0364 22.7232 83.64 22.7232H84.193L84.1525 19.5586C84.1053 18.076 84.0919 17.1637 84.1121 16.8216C84.1391 16.4723 84.2234 16.1944 84.3684 15.9948C84.7089 15.503 85.127 15.2179 85.6227 15.1395C86.1251 15.0647 86.5702 15.2072 86.958 15.5671L87.3492 15.952L88.3338 15.6384C88.8463 15.5173 89.17 15.3961 89.3049 15.282C89.4398 15.168 89.4937 14.9399 89.4668 14.5978V14.2272L86.6613 14.1416L83.8288 14.0704L83.5051 13.6427C83.2623 13.3576 83.1443 13.0119 83.1544 12.6021C83.1612 12.1958 83.3028 11.8608 83.5726 11.6042C83.7681 11.3761 83.9502 11.2443 84.1121 11.2051C84.2807 11.1694 84.6819 11.1481 85.3125 11.1481C86.2094 11.1481 86.6748 11.1195 86.7017 11.0625C86.7456 11.0447 86.7591 10.8416 86.7422 10.4496C86.7152 10.2215 86.6647 10.0861 86.5938 10.0362C86.5197 9.97914 86.3275 9.95063 86.0139 9.95063C85.2113 9.95063 84.6651 9.67266 84.3684 9.10958C84.0514 8.53938 84.1525 7.99055 84.6651 7.45599C84.8809 7.22791 85.2788 7.11387 85.8655 7.11387H86.7017V6.64345C86.7017 6.41537 86.6647 6.28351 86.5938 6.2443C86.5197 6.20867 86.3005 6.18728 85.9329 6.18728C84.8708 6.18728 84.2065 5.85585 83.9367 5.18943C83.7648 4.80097 83.7412 4.42678 83.8693 4.06327C83.957 3.71402 84.1458 3.44674 84.4358 3.26499C84.7325 3.0868 85.1574 2.97276 85.7171 2.92286L86.6613 2.83733L86.7692 2.15309C86.8231 1.73613 86.9749 1.36193 87.2278 1.02694C87.4773 0.695505 87.7403 0.506625 88.0101 0.456731Z" fill="#47835A"/>
</svg>
