<svg width="20" height="19" viewBox="0 0 20 19" fill="none" xmlns="http://www.w3.org/2000/svg">
<path d="M20 8.97998C20 13.8125 15.5225 17.73 10 17.73C9.00956 17.7313 8.02323 17.6027 7.06625 17.3475C6.33625 17.7175 4.66 18.4275 1.84 18.89C1.59 18.93 1.4 18.67 1.49875 18.4375C1.94125 17.3925 2.34125 16 2.46125 14.73C0.93 13.1925 0 11.18 0 8.97998C0 4.14748 4.4775 0.22998 10 0.22998C15.5225 0.22998 20 4.14748 20 8.97998ZM6.25 8.97998C6.25 8.64846 6.1183 8.33052 5.88388 8.0961C5.64946 7.86168 5.33152 7.72998 5 7.72998C4.66848 7.72998 4.35054 7.86168 4.11612 8.0961C3.8817 8.33052 3.75 8.64846 3.75 8.97998C3.75 9.3115 3.8817 9.62944 4.11612 9.86386C4.35054 10.0983 4.66848 10.23 5 10.23C5.33152 10.23 5.64946 10.0983 5.88388 9.86386C6.1183 9.62944 6.25 9.3115 6.25 8.97998ZM11.25 8.97998C11.25 8.64846 11.1183 8.33052 10.8839 8.0961C10.6495 7.86168 10.3315 7.72998 10 7.72998C9.66848 7.72998 9.35054 7.86168 9.11612 8.0961C8.8817 8.33052 8.75 8.64846 8.75 8.97998C8.75 9.3115 8.8817 9.62944 9.11612 9.86386C9.35054 10.0983 9.66848 10.23 10 10.23C10.3315 10.23 10.6495 10.0983 10.8839 9.86386C11.1183 9.62944 11.25 9.3115 11.25 8.97998ZM15 10.23C15.3315 10.23 15.6495 10.0983 15.8839 9.86386C16.1183 9.62944 16.25 9.3115 16.25 8.97998C16.25 8.64846 16.1183 8.33052 15.8839 8.0961C15.6495 7.86168 15.3315 7.72998 15 7.72998C14.6685 7.72998 14.3505 7.86168 14.1161 8.0961C13.8817 8.33052 13.75 8.64846 13.75 8.97998C13.75 9.3115 13.8817 9.62944 14.1161 9.86386C14.3505 10.0983 14.6685 10.23 15 10.23Z" fill="white"/>
</svg>
