<svg width="151" height="150" viewBox="0 0 151 150" fill="none" xmlns="http://www.w3.org/2000/svg">
<g clip-path="url(#clip0_811_44907)">
<path d="M135.937 46.0977C124.446 20.5664 98.1888 5.89082 70.2069 8.35229C29.1853 11.9608 5.5148 39.8121 9.08126 80.3556C10.2204 93.3056 13.7452 104.389 19.286 113.398C17.1272 120.354 15.6299 125.586 13.2262 134.551C21.2924 131.643 25.4033 130.217 31.8794 127.72C44.4517 137.807 61.5669 142.365 81.8486 140.581C117.501 137.445 145.154 107.627 141.728 68.6771C141.083 60.8837 139.116 53.2466 135.937 46.0977Z" fill="#DE3C2B"/>
<path d="M138.183 45.2598C131.733 30.9399 120.463 19.3428 106.338 12.4842C92.0706 5.60795 76.0432 4.28732 60.6045 7.26163C47.1106 9.86408 34.3155 15.6174 24.4495 25.3394C15.1192 34.5323 9.39401 46.8213 7.32303 59.6822C6.17051 67.1218 6.01263 74.6848 6.84182 82.1709C7.70098 91.4814 10.1777 100.579 14.1738 109.032C15.1395 110.995 16.1814 112.911 17.3194 114.778L16.9182 112.956C14.7439 119.964 12.7551 127.025 10.8585 134.109C10.367 135.939 12.4505 137.372 14.0556 136.789C20.2829 134.545 26.5237 132.339 32.7088 129.958L30.3235 129.545C40.1265 137.367 52.2105 141.674 64.6258 142.901C77.0618 144.136 89.9485 142.962 101.643 138.39C111.862 134.399 120.976 127.986 128.177 119.703C135.463 111.232 140.502 101.071 142.844 90.144C145.641 76.8678 144.728 63.0647 140.21 50.2714C139.608 48.5676 138.928 46.8907 138.191 45.239C136.941 42.4378 132.428 44.0895 133.691 46.9198C139.5 60.011 141.104 74.5866 138.262 88.6196C135.928 99.9678 130.463 110.427 122.489 118.828C114.596 127.021 104.647 132.946 93.6818 135.988C87.4543 137.66 81.0446 138.515 74.5911 138.531C67.537 138.68 60.4958 137.833 53.681 136.024C47.6469 134.416 41.9272 131.817 36.7515 128.328C36.1316 127.9 35.5218 127.472 34.9201 127.023C34.2312 126.381 33.4514 125.847 32.6016 125.43C31.5569 125.08 30.5422 125.641 29.5805 126.007C28.7258 126.333 27.8711 126.659 27.0155 126.975C24.0128 128.103 20.9957 129.181 17.9795 130.27C16.1107 130.936 14.2527 131.612 12.3839 132.278L15.5811 134.958C16.8131 130.363 18.0651 125.765 19.4093 121.19C19.9882 119.211 20.5779 117.242 21.1875 115.271C21.3663 114.794 21.5244 114.308 21.6408 113.806C21.7184 112.976 21.4646 112.145 20.9459 111.498C20.3936 110.583 19.8703 109.655 19.376 108.715C15.0129 100.084 12.3587 90.6802 11.5611 81.043C10.1829 66.8592 12.0924 52.2758 19.2493 39.8308C25.8222 28.3908 36.6793 20.0072 49.0718 15.3835C63.5933 9.97014 80.0101 8.75689 94.9439 13.1652C110.182 17.7275 123.097 27.9451 131.045 41.7216C132.016 43.403 132.882 45.1438 133.691 46.9198C134.18 48.1416 135.539 48.7549 136.777 48.3348C138.01 47.8649 138.642 46.4843 138.192 45.2489L138.183 45.2598Z" fill="#FEE26B"/>
<path d="M42.1299 72.0653L49.0152 71.6156L49.143 73.5714L42.2576 74.0211L42.1299 72.0653ZM39.4519 83.8448C41.2511 83.4668 44.0126 82.7854 46.6556 82.1317L46.9708 84.1955C44.6909 84.8856 42.2713 85.5848 40.4027 86.1277L39.4519 83.8448ZM40.5342 68.5017L42.8693 68.3492L43.899 84.1156L41.564 84.2681L40.5342 68.5017ZM41.8913 68.413L49.8544 67.893L50.4631 77.2131L42.5001 77.7332L42.3658 75.6776L47.9739 75.3113L47.6337 70.1024L42.0256 70.4687L41.8913 68.413ZM46.5826 76.1036C47.533 79.6092 49.2627 82.4625 52.2812 83.5681C51.7922 84.061 51.155 85.0447 50.8561 85.6855C47.5322 84.199 45.7539 80.9079 44.6077 76.5533L46.5826 76.1036ZM49.5542 77.4128L51.5162 78.6074C50.4863 79.7169 49.2821 80.9179 48.3311 81.7016L46.7587 80.6418C47.6658 79.8009 48.8809 78.4589 49.5542 77.4128ZM33.2671 68.9362L38.2565 68.6104L38.396 70.7458L35.6418 70.9257L36.6716 86.6921L34.4363 86.8381L33.2671 68.9362ZM37.5979 68.6534L38.017 68.626L38.3511 68.524L40.0289 69.3564C39.6034 71.1279 39.0296 73.3901 38.5126 74.9872C39.9315 76.4579 40.2809 77.818 40.3565 78.9755C40.4438 80.3127 40.1992 81.1704 39.5706 81.6725C39.2669 81.9328 38.8769 82.0986 38.4218 82.1885C38.0465 82.2731 37.5276 82.307 37.0473 82.3183C36.9883 81.7209 36.7474 80.7946 36.369 80.2181C36.7508 80.2332 37.0302 80.215 37.2896 80.198C37.5079 80.1637 37.7048 80.1108 37.8766 79.9793C38.1244 79.7827 38.1981 79.3771 38.1616 78.8183C38.1003 77.8802 37.7201 76.6624 36.454 75.3822C36.9155 73.5483 37.4089 70.67 37.6448 69.3718L37.5979 68.6534ZM61.8884 68.3296L72.0867 67.6635L72.2223 69.7391L62.024 70.4051L61.8884 68.3296ZM61.4601 72.2057L72.9357 71.4562L73.0739 73.5717L61.5983 74.3212L61.4601 72.2057ZM61.749 76.015L73.045 75.2772L73.1818 77.3728L61.8859 78.1105L61.749 76.015ZM65.6007 65.9425L67.9557 65.7887L68.4341 73.1131L66.0791 73.2669L65.6007 65.9425ZM68.6554 73.74L70.9905 73.5875L71.5301 81.8499C71.6057 83.0075 71.4266 83.6405 70.6704 84.0306C69.8956 84.442 68.8205 84.5523 67.3237 84.65C67.2008 83.9966 66.779 83.0622 66.4193 82.4643C67.3998 82.4404 68.4975 82.3687 68.7955 82.3292C69.1148 82.3083 69.2107 82.2419 69.1925 81.9625L68.6554 73.74ZM62.7715 79.3955L64.6157 78.1727C65.6176 79.0894 66.7614 80.3375 67.2643 81.2867L65.2869 82.6185C64.8465 81.7052 63.756 80.3534 62.7715 79.3955ZM55.6629 67.8343L60.8119 67.498L61.7035 81.1489L56.5545 81.4852L56.415 79.3497L59.3288 79.1594L58.7162 69.7794L55.8024 69.9697L55.6629 67.8343ZM56.1528 73.4944L60.0246 73.2415L60.1615 75.337L56.2897 75.5899L56.1528 73.4944ZM54.5453 67.9073L56.7606 67.7626L57.7682 83.1897L55.5529 83.3344L54.5453 67.9073ZM83.6 66.5708L93.2195 65.9425L93.3615 68.1179L83.742 68.7462L83.6 66.5708ZM82.6554 70.5208L94.3505 69.7569L94.4952 71.9722L82.8001 72.736L82.6554 70.5208ZM83.3565 74.5035L94.4129 73.7814L94.5576 75.9967L83.5011 76.7188L83.3565 74.5035ZM87.0351 64.5426L89.41 64.3875L89.8597 71.2728L87.4848 71.4279L87.0351 64.5426ZM89.9093 72.0312L92.2842 71.8761L92.8356 80.3181C92.9151 81.5355 92.7186 82.2097 91.9438 82.6211C91.1689 83.0325 90.0353 83.1667 88.5185 83.2657C88.393 82.5724 88.0072 81.5755 87.6449 80.9377C88.6254 80.9138 89.7231 80.8421 90.0611 80.7999C90.3804 80.7791 90.4763 80.7127 90.458 80.4333L89.9093 72.0312ZM84.27 77.7509L85.9746 76.5372C86.91 77.358 88.0499 78.5462 88.5862 79.3931L86.7711 80.7543C86.2946 79.9035 85.1908 78.6528 84.27 77.7509ZM75.8764 75.9742C77.8036 75.4074 80.6639 74.3988 83.3672 73.4406L83.8234 75.5152C81.3609 76.4778 78.6801 77.4746 76.6051 78.2315L75.8764 75.9742ZM78.774 65.1022L80.9693 64.9588L82.1933 83.6989L79.998 83.8423L78.774 65.1022ZM76.2074 66.312L78.2253 66.521C78.1379 69.1723 77.8401 71.9777 77.2389 73.8208C76.8602 73.5449 75.9668 73.0621 75.4722 72.8539C76.0052 71.1956 76.1816 68.6788 76.2074 66.312ZM76.9248 69.011L82.8721 68.6226L83.0207 70.8977L76.6343 71.3149L76.9248 69.011ZM102.501 64.4344L115.354 63.5949L115.467 65.3312L102.614 66.1707L102.501 64.4344ZM105.196 68.2669L105.285 69.624L112.909 69.126L112.82 67.7689L105.196 68.2669ZM103.05 67.0041L114.904 66.2298L115.174 70.361L103.319 71.1353L103.05 67.0041ZM106.215 64.8332L108.091 64.7107L108.436 69.9994L106.56 70.1219L106.215 64.8332ZM109.408 64.6246L111.324 64.4995L111.669 69.7882L109.753 69.9134L109.408 64.6246ZM106.099 75.0224L106.147 75.7609L112.952 75.3164L112.904 74.5779L106.099 75.0224ZM106.23 77.0381L106.28 77.7965L113.085 77.352L113.036 76.5936L106.23 77.0381ZM105.967 73.0067L106.015 73.7451L112.821 73.3007L112.772 72.5622L105.967 73.0067ZM103.664 71.8143L115.02 71.0726L115.508 78.5367L104.152 79.2784L103.664 71.8143ZM110.472 79.988L111.922 78.5704C113.655 79.0184 115.702 79.6664 116.896 80.1496L114.927 81.621C113.912 81.1061 112.145 80.4399 110.472 79.988ZM107.409 78.8251L109.144 79.9144C107.887 80.9184 105.919 81.7885 104.168 82.2837C103.877 81.8217 103.27 81.1197 102.825 80.748C104.519 80.2966 106.355 79.5554 107.409 78.8251ZM100.291 63.737L102.548 64.2309C101.638 67.7978 100.05 71.7096 98.1706 74.2375C97.9319 73.6518 97.2645 72.3325 96.8436 71.7186C98.3376 69.737 99.6229 66.7068 100.291 63.737ZM99.0713 69.3083L101.143 66.9683L101.206 67.0043L102.209 82.3715L99.9342 82.5201L99.0713 69.3083Z" fill="white"/>
</g>
<defs>
<clipPath id="clip0_811_44907">
<rect width="137.52" height="138.66" fill="white" transform="translate(138.126) rotate(84.9728)"/>
</clipPath>
</defs>
</svg>
